# xmcd CD database file
# Copyright (C) 1997 Ti Kan
# 
# Track frame offsets:
#     187
#     15285
#     26877
#     42617
#     53112
#     63120
#     78832
#     90667
#     104952
#     117535
#     130310
#     145175
#     161225
#     172260
#     185710
#     205200
#     221317
#     235360
#     251932
#     265205
# 
# Disc length: 3685 seconds
# 
# Revision: 1
# Processed by: cddbd v1.4b41PL1 Copyright (c) Steve Scherf et al.
# Submitted via: DiscPlay 4.0.4
# 
DISCID=320e6314
DTITLE=Bobby Bland - Touch of the Blues and Spotlighting The Man
DYEAR=1900
DGENRE=
TTITLE0=Touch of the Blues
TTITLE1=Set Me Free
TTITLE2=That Did It
TTITLE3=Road of Broken Hearted Men
TTITLE4=Sweet Loving
TTITLE5=Driften' Blues
TTITLE6=Sweet Lips of Joy
TTITLE7=Sad Feeling
TTITLE8=Shoes
TTITLE9=One Horse Town
TTITLE10=Chains of Love
TTITLE11=Georgia
TTITLE12=Since I Fell For You
TTITLE13=Who Can I Turn To
TTITLE14=Wouldn't You Rather Have Me
TTITLE15=Rockin' In the Same Old Boat
TTITLE16=I'm On My Way
TTITLE17=Ask 'Bout Nothing But The Blues
TTITLE18=You Ought To Be Ashamed
TTITLE19=Gotta Get To Know You
EXTD=
EXTT0=
EXTT1=
EXTT2=
EXTT3=
EXTT4=
EXTT5=
EXTT6=
EXTT7=
EXTT8=
EXTT9=
EXTT10=
EXTT11=
EXTT12=
EXTT13=
EXTT14=
EXTT15=
EXTT16=
EXTT17=
EXTT18=
EXTT19=
PLAYORDER=
